<svg version="1.1" xmlns="http://www.w3.org/2000/svg" xmlns:xlink="http://www.w3.org/1999/xlink" width="2460" height="1319"><defs/><g><g transform="translate(-70,-174) scale(1,1)"><rect fill="#C0C0C0" stroke="none" x="615" y="423" width="473" height="115" opacity="0.2"/></g><g transform="translate(-70,-174) scale(1,1)"><rect fill="#ffffff" stroke="none" x="608" y="416" width="473" height="115"/></g><g transform="translate(-70,-174) scale(1,1)"><path fill="none" stroke="#000000" d="M 608 416 L 1081 416 L 1081 531 L 608 531 L 608 416 Z Z" stroke-miterlimit="10"/></g><g transform="translate(-70,-174) scale(1,1)"><path fill="none" stroke="#000000" d="M 608 441 L 1081 441" stroke-miterlimit="10"/></g><g transform="translate(-70,-174) scale(1,1)"><path fill="none" stroke="#000000" d="M 608 494 L 1081 494" stroke-miterlimit="10"/></g><g transform="translate(-70,-174) scale(1,1)"><g><path fill="none" stroke="none"/><text fill="#000000" stroke="none" font-family="Arial" font-size="13px" font-style="normal" font-weight="bold" text-decoration="none" x="807" y="435.5">GameEngine</text></g></g><g transform="translate(-70,-174) scale(1,1)"><g><path fill="none" stroke="none"/><text fill="#000000" stroke="none" font-family="Arial" font-size="13px" font-style="normal" font-weight="normal" text-decoration="none" x="613" y="458.5">+rmiServer: RMIServer</text></g></g><g transform="translate(-70,-174) scale(1,1)"><g><path fill="none" stroke="none"/><text fill="#000000" stroke="none" font-family="Arial" font-size="13px" font-style="normal" font-weight="normal" text-decoration="none" x="613" y="473.5">-socketServer: SocketServer</text></g></g><g transform="translate(-70,-174) scale(1,1)"><g><path fill="none" stroke="none"/><text fill="#000000" stroke="none" font-family="Arial" font-size="13px" font-style="normal" font-weight="normal" text-decoration="none" x="613" y="488.5">-lobbies: ArrayList&lt;Lobby&gt;</text></g></g><g transform="translate(-70,-174) scale(1,1)"><g><path fill="none" stroke="none"/><text fill="#000000" stroke="none" font-family="Arial" font-size="13px" font-style="normal" font-weight="normal" text-decoration="none" x="613" y="511.5">+joinLobby(handler: ClientHandler)</text></g></g><g transform="translate(-70,-174) scale(1,1)"><g><path fill="none" stroke="none"/><text fill="#000000" stroke="none" font-family="Arial" font-size="13px" font-style="normal" font-weight="normal" text-decoration="none" x="613" y="526.5">+leaveLobby(handler: ClientHandler)</text></g></g><g transform="translate(-70,-174) scale(1,1)"><rect fill="#C0C0C0" stroke="none" x="975" y="863" width="354.33154296875" height="85" opacity="0.2"/></g><g transform="translate(-70,-174) scale(1,1)"><rect fill="#ffffff" stroke="none" x="968" y="856" width="354.33154296875" height="85"/></g><g transform="translate(-70,-174) scale(1,1)"><path fill="none" stroke="#000000" d="M 968 856 L 1322.33154296875 856 L 1322.33154296875 941 L 968 941 L 968 856 Z Z" stroke-miterlimit="10"/></g><g transform="translate(-70,-174) scale(1,1)"><path fill="none" stroke="#000000" d="M 968 881 L 1322.33154296875 881" stroke-miterlimit="10"/></g><g transform="translate(-70,-174) scale(1,1)"><path fill="none" stroke="#000000" d="M 968 919 L 1322.33154296875 919" stroke-miterlimit="10"/></g><g transform="translate(-70,-174) scale(1,1)"><g><path fill="none" stroke="none"/><text fill="#000000" stroke="none" font-family="Arial" font-size="13px" font-style="normal" font-weight="bold" text-decoration="none" x="1105.665771484375" y="875.5">SocketServer</text></g></g><g transform="translate(-70,-174) scale(1,1)"><g><path fill="none" stroke="none"/><text fill="#000000" stroke="none" font-family="Arial" font-size="13px" font-style="normal" font-weight="normal" text-decoration="none" x="973" y="898.5">-acceptor: Socket</text></g></g><g transform="translate(-70,-174) scale(1,1)"><g><path fill="none" stroke="none"/><text fill="#000000" stroke="none" font-family="Arial" font-size="13px" font-style="normal" font-weight="normal" text-decoration="none" x="973" y="913.5">-port: Integer</text></g></g><g transform="translate(-70,-174) scale(1,1)"><g><path fill="none" stroke="none"/><text fill="#000000" stroke="none" font-family="Arial" font-size="13px" font-style="normal" font-weight="normal" text-decoration="none" x="973" y="936.5">+runLoop()</text></g></g><g transform="translate(-70,-174) scale(1,1)"><rect fill="#C0C0C0" stroke="none" x="423" y="863" width="316.38525390625" height="130" opacity="0.2"/></g><g transform="translate(-70,-174) scale(1,1)"><rect fill="#ffffff" stroke="none" x="416" y="856" width="316.38525390625" height="130"/></g><g transform="translate(-70,-174) scale(1,1)"><path fill="none" stroke="#000000" d="M 416 856 L 732.38525390625 856 L 732.38525390625 986 L 416 986 L 416 856 Z Z" stroke-miterlimit="10"/></g><g transform="translate(-70,-174) scale(1,1)"><path fill="none" stroke="#000000" d="M 416 881 L 732.38525390625 881" stroke-miterlimit="10"/></g><g transform="translate(-70,-174) scale(1,1)"><path fill="none" stroke="#000000" d="M 416 919 L 732.38525390625 919" stroke-miterlimit="10"/></g><g transform="translate(-70,-174) scale(1,1)"><g><path fill="none" stroke="none"/><text fill="#000000" stroke="none" font-family="Arial" font-size="13px" font-style="normal" font-weight="bold" text-decoration="none" x="543.192626953125" y="875.5">RMIServer</text></g></g><g transform="translate(-70,-174) scale(1,1)"><g><path fill="none" stroke="none"/><text fill="#000000" stroke="none" font-family="Arial" font-size="13px" font-style="normal" font-weight="normal" text-decoration="none" x="421" y="898.5">-registry: Registry</text></g></g><g transform="translate(-70,-174) scale(1,1)"><g><path fill="none" stroke="none"/><text fill="#000000" stroke="none" font-family="Arial" font-size="13px" font-style="normal" font-weight="normal" text-decoration="none" x="421" y="913.5">-port: Integer</text></g></g><g transform="translate(-70,-174) scale(1,1)"><rect fill="#C0C0C0" stroke="none" x="711" y="671" width="292" height="145" opacity="0.2"/></g><g transform="translate(-70,-174) scale(1,1)"><rect fill="#ffffff" stroke="none" x="704" y="664" width="292" height="145"/></g><g transform="translate(-70,-174) scale(1,1)"><path fill="none" stroke="#000000" d="M 704 664 L 996 664 L 996 809 L 704 809 L 704 664 Z Z" stroke-miterlimit="10"/></g><g transform="translate(-70,-174) scale(1,1)"><path fill="none" stroke="#000000" d="M 704 689 L 996 689" stroke-miterlimit="10"/></g><g transform="translate(-70,-174) scale(1,1)"><path fill="none" stroke="#000000" d="M 704 727 L 996 727" stroke-miterlimit="10"/></g><g transform="translate(-70,-174) scale(1,1)"><g><path fill="none" stroke="none"/><text fill="#000000" stroke="none" font-family="Arial" font-size="13px" font-style="normal" font-weight="bold" text-decoration="none" x="831" y="683.5">Server</text></g></g><g transform="translate(-70,-174) scale(1,1)"><g><path fill="none" stroke="none"/><text fill="#000000" stroke="none" font-family="Arial" font-size="13px" font-style="normal" font-weight="normal" text-decoration="none" x="709" y="706.5">-gameServer: ServerInterface</text></g></g><g transform="translate(-70,-174) scale(1,1)"><g><path fill="none" stroke="none"/><text fill="#000000" stroke="none" font-family="Arial" font-size="13px" font-style="normal" font-weight="normal" text-decoration="none" x="709" y="721.5">-clientHandlers: ArrayList&lt;ClientHandler Thread&gt;</text></g></g><g transform="translate(-70,-174) scale(1,1)"><g><path fill="none" stroke="none"/><text fill="#000000" stroke="none" font-family="Arial" font-size="13px" font-style="normal" font-weight="normal" text-decoration="none" x="709" y="744.5">+authenticate()</text></g></g><g transform="translate(-70,-174) scale(1,1)"><g><path fill="none" stroke="none"/><text fill="#000000" stroke="none" font-family="Arial" font-size="13px" font-style="normal" font-weight="normal" text-decoration="none" x="709" y="759.5">+notifyDisconnect()</text></g></g><g transform="translate(-70,-174) scale(1,1)"><g><path fill="none" stroke="none"/><text fill="#000000" stroke="none" font-family="Arial" font-size="13px" font-style="normal" font-weight="normal" text-decoration="none" x="709" y="774.5">+notifyAuthentication()</text></g></g><g transform="translate(-70,-174) scale(1,1)"><g><path fill="none" stroke="none"/><text fill="#000000" stroke="none" font-family="Arial" font-size="13px" font-style="normal" font-weight="normal" text-decoration="none" x="709" y="789.5">+notifyError()</text></g></g><g transform="translate(-70,-174) scale(1,1)"><path fill="#C0C0C0" stroke="none" d="M 489.44873046875 202.5 C 489.44873046875 196.1487248 494.59745526875 191 500.94873046875 191 C 507.30000566875 191 512.44873046875 196.1487248 512.44873046875 202.5 C 512.44873046875 208.8512752 507.30000566875 214 500.94873046875 214 C 494.59745526875 214 489.44873046875 208.8512752 489.44873046875 202.5 Z" opacity="0.2"/></g><g transform="translate(-70,-174) scale(1,1)"><path fill="#ffffff" stroke="none" d="M 482.44873046875 195.5 C 482.44873046875 189.1487248 487.59745526875 184 493.94873046875 184 C 500.30000566875 184 505.44873046875 189.1487248 505.44873046875 195.5 C 505.44873046875 201.8512752 500.30000566875 207 493.94873046875 207 C 487.59745526875 207 482.44873046875 201.8512752 482.44873046875 195.5 Z"/></g><g transform="translate(-70,-174) scale(1,1)"><path fill="none" stroke="#000000" d="M 482.44873046875 195.5 C 482.44873046875 189.1487248 487.59745526875 184 493.94873046875 184 C 500.30000566875 184 505.44873046875 189.1487248 505.44873046875 195.5 C 505.44873046875 201.8512752 500.30000566875 207 493.94873046875 207 C 487.59745526875 207 482.44873046875 201.8512752 482.44873046875 195.5 Z" stroke-miterlimit="10"/></g><g transform="translate(-70,-174) scale(1,1)"><path fill="none" stroke="#000000" d="M 208 232 L 779.8974609375 232" stroke-miterlimit="10"/></g><g transform="translate(-70,-174) scale(1,1)"><g><path fill="none" stroke="none"/><text fill="#000000" stroke="none" font-family="Arial" font-size="13px" font-style="normal" font-weight="bold" text-decoration="none" x="449.44873046875" y="226.5">ServerInterface</text></g></g><g transform="translate(-70,-174) scale(1,1)"><g><path fill="none" stroke="none"/><text fill="#000000" stroke="none" font-family="Arial" font-size="13px" font-style="normal" font-weight="normal" text-decoration="none" x="213" y="249.5">+onClientActiont(clientHandler : ClientHandlerInterface, standardActionRequest : Action)</text></g></g><g transform="translate(-70,-174) scale(1,1)"><g><path fill="none" stroke="none"/><text fill="#000000" stroke="none" font-family="Arial" font-size="13px" font-style="normal" font-weight="normal" text-decoration="none" x="213" y="264.5">+dispatchClientAction(lobby : Lobby, clientHandler : ClientHandlerInterface, standardActionRequest: Action)</text></g></g><g transform="translate(-70,-174) scale(1,1)"><rect fill="#C0C0C0" stroke="none" x="1087" y="1367" width="144.59228515625" height="102" opacity="0.2"/></g><g transform="translate(-70,-174) scale(1,1)"><rect fill="#ffffff" stroke="none" x="1080" y="1360" width="144.59228515625" height="102"/></g><g transform="translate(-70,-174) scale(1,1)"><path fill="none" stroke="#000000" d="M 1080 1360 L 1224.59228515625 1360 L 1224.59228515625 1462 L 1080 1462 L 1080 1360 Z Z" stroke-miterlimit="10"/></g><g transform="translate(-70,-174) scale(1,1)"><path fill="none" stroke="#000000" d="M 1080 1385 L 1224.59228515625 1385" stroke-miterlimit="10"/></g><g transform="translate(-70,-174) scale(1,1)"><path fill="none" stroke="#000000" d="M 1080 1408 L 1224.59228515625 1408" stroke-miterlimit="10"/></g><g transform="translate(-70,-174) scale(1,1)"><g><path fill="none" stroke="none"/><text fill="#000000" stroke="none" font-family="Arial" font-size="13px" font-style="normal" font-weight="bold" text-decoration="none" x="1093.296142578125" y="1379.5">SocketClientHandler</text></g></g><g transform="translate(-70,-174) scale(1,1)"><g><path fill="none" stroke="none"/><text fill="#000000" stroke="none" font-family="Arial" font-size="13px" font-style="normal" font-weight="normal" text-decoration="none" x="1085" y="1402.5">-socket: Socket</text></g></g><g transform="translate(-70,-174) scale(1,1)"><g><path fill="none" stroke="none"/><text fill="#000000" stroke="none" font-family="Arial" font-size="13px" font-style="normal" font-weight="normal" text-decoration="none" x="1085" y="1425.5">+runLoop()</text></g></g><g transform="translate(-70,-174) scale(1,1)"><rect fill="#C0C0C0" stroke="none" x="487" y="1375" width="180" height="115" opacity="0.2"/></g><g transform="translate(-70,-174) scale(1,1)"><rect fill="#ffffff" stroke="none" x="480" y="1368" width="180" height="115"/></g><g transform="translate(-70,-174) scale(1,1)"><path fill="none" stroke="#000000" d="M 480 1368 L 660 1368 L 660 1483 L 480 1483 L 480 1368 Z Z" stroke-miterlimit="10"/></g><g transform="translate(-70,-174) scale(1,1)"><path fill="none" stroke="#000000" d="M 480 1393 L 660 1393" stroke-miterlimit="10"/></g><g transform="translate(-70,-174) scale(1,1)"><path fill="none" stroke="#000000" d="M 480 1416 L 660 1416" stroke-miterlimit="10"/></g><g transform="translate(-70,-174) scale(1,1)"><g><path fill="none" stroke="none"/><text fill="#000000" stroke="none" font-family="Arial" font-size="13px" font-style="normal" font-weight="bold" text-decoration="none" x="519.5" y="1387.5">RMIClientHandler</text></g></g><g transform="translate(-70,-174) scale(1,1)"><g><path fill="none" stroke="none"/><text fill="#000000" stroke="none" font-family="Arial" font-size="13px" font-style="normal" font-weight="normal" text-decoration="none" x="485" y="1410.5">-clientRef: RMIClientInterface</text></g></g><g transform="translate(-70,-174) scale(1,1)"><rect fill="#C0C0C0" stroke="none" x="1415" y="871" width="444.84912109375" height="220" opacity="0.2"/></g><g transform="translate(-70,-174) scale(1,1)"><rect fill="#ffffff" stroke="none" x="1408" y="864" width="444.84912109375" height="220"/></g><g transform="translate(-70,-174) scale(1,1)"><path fill="none" stroke="#000000" d="M 1408 864 L 1852.84912109375 864 L 1852.84912109375 1084 L 1408 1084 L 1408 864 Z Z" stroke-miterlimit="10"/></g><g transform="translate(-70,-174) scale(1,1)"><path fill="none" stroke="#000000" d="M 1408 889 L 1852.84912109375 889" stroke-miterlimit="10"/></g><g transform="translate(-70,-174) scale(1,1)"><path fill="none" stroke="#000000" d="M 1408 942 L 1852.84912109375 942" stroke-miterlimit="10"/></g><g transform="translate(-70,-174) scale(1,1)"><g><path fill="none" stroke="none"/><text fill="#000000" stroke="none" font-family="Arial" font-size="13px" font-style="normal" font-weight="bold" text-decoration="none" x="1595.424560546875" y="883.5">GameLobby</text></g></g><g transform="translate(-70,-174) scale(1,1)"><g><path fill="none" stroke="none"/><text fill="#000000" stroke="none" font-family="Arial" font-size="13px" font-style="normal" font-weight="normal" text-decoration="none" x="1413" y="906.5">-players: HashMap&lt;ClientHandler Player&gt;</text></g></g><g transform="translate(-70,-174) scale(1,1)"><g><path fill="none" stroke="none"/><text fill="#000000" stroke="none" font-family="Arial" font-size="13px" font-style="normal" font-weight="normal" text-decoration="none" x="1413" y="921.5">-matchController: MatchController</text></g></g><g transform="translate(-70,-174) scale(1,1)"><g><path fill="none" stroke="none"/><text fill="#000000" stroke="none" font-family="Arial" font-size="13px" font-style="normal" font-weight="normal" text-decoration="none" x="1413" y="936.5">-startTimeout: Integer</text></g></g><g transform="translate(-70,-174) scale(1,1)"><g><path fill="none" stroke="none"/><text fill="#000000" stroke="none" font-family="Arial" font-size="13px" font-style="normal" font-weight="normal" text-decoration="none" x="1413" y="959.5">+startGame()</text></g></g><g transform="translate(-70,-174) scale(1,1)"><g><path fill="none" stroke="none"/><text fill="#000000" stroke="none" font-family="Arial" font-size="13px" font-style="normal" font-weight="normal" text-decoration="none" x="1413" y="974.5">+onClientAction(clientHandler : ClientHandler, standardActionRequest: Action)</text></g></g><g transform="translate(-70,-174) scale(1,1)"><g><path fill="none" stroke="none"/><text fill="#000000" stroke="none" font-family="Arial" font-size="13px" font-style="normal" font-weight="normal" text-decoration="none" x="1413" y="989.5">+onClientJoin(clientHandler : ClientHandler)</text></g></g><g transform="translate(-70,-174) scale(1,1)"><g><path fill="none" stroke="none"/><text fill="#000000" stroke="none" font-family="Arial" font-size="13px" font-style="normal" font-weight="normal" text-decoration="none" x="1413" y="1004.5">+isFull(): Boolean</text></g></g><g transform="translate(-70,-174) scale(1,1)"><g><path fill="none" stroke="none"/><text fill="#000000" stroke="none" font-family="Arial" font-size="13px" font-style="normal" font-weight="normal" text-decoration="none" x="1413" y="1019.5">+onClientLeave(clientHandler: ClientHandler)</text></g></g><g transform="translate(-70,-174) scale(1,1)"><g><path fill="none" stroke="none"/><text fill="#000000" stroke="none" font-family="Arial" font-size="13px" font-style="normal" font-weight="normal" text-decoration="none" x="1413" y="1034.5">+join(handler: ClientHandler)</text></g></g><g transform="translate(-70,-174) scale(1,1)"><g><path fill="none" stroke="none"/><text fill="#000000" stroke="none" font-family="Arial" font-size="13px" font-style="normal" font-weight="normal" text-decoration="none" x="1413" y="1049.5">+leave(handler: ClientHandler)</text></g></g><g transform="translate(-70,-174) scale(1,1)"><g><path fill="none" stroke="none"/><text fill="#000000" stroke="none" font-family="Arial" font-size="13px" font-style="normal" font-weight="normal" text-decoration="none" x="1413" y="1064.5">+joinAfterDisconnection(handler: ClientHandler)</text></g></g><g transform="translate(-70,-174) scale(1,1)"><g><path fill="none" stroke="none"/><text fill="#000000" stroke="none" font-family="Arial" font-size="13px" font-style="normal" font-weight="normal" text-decoration="none" x="1413" y="1079.5">+forwardActionToController(handler: ClientHandler, standardActionRequest: Action)</text></g></g><g transform="translate(-70,-174) scale(1,1)"><path fill="none" stroke="#000000" d="M 732 888 L 808 888 M 808 888 A 8 8 0 0 0 816 880 L 816 809" stroke-miterlimit="10"/></g><g transform="translate(-70,-174) scale(1,1)"><path fill="#FFFFFF" stroke="none" d="M 824.419035512032 829.3253497152483 L 816 809 L 807.580964487968 829.3253497152483"/></g><g transform="translate(-70,-174) scale(1,1)"><path fill="none" stroke="#000000" d="M 824.419035512032 829.3253497152483 L 816 809 L 807.580964487968 829.3253497152483 L 824.419035512032 829.3253497152483" stroke-miterlimit="10"/></g><g transform="translate(-70,-174) scale(1,1)"><path fill="none" stroke="#000000" d="M 968 888 L 888 888 M 888 888 A 8 8 0 0 1 880 880 L 880 809" stroke-miterlimit="10"/></g><g transform="translate(-70,-174) scale(1,1)"><path fill="#FFFFFF" stroke="none" d="M 888.419035512032 829.3253497152483 L 880 809 L 871.580964487968 829.3253497152483"/></g><g transform="translate(-70,-174) scale(1,1)"><path fill="none" stroke="#000000" d="M 888.419035512032 829.3253497152483 L 880 809 L 871.580964487968 829.3253497152483 L 888.419035512032 829.3253497152483" stroke-miterlimit="10"/></g><g transform="translate(-70,-174) scale(1,1)"><path fill="none" stroke="#000000" d="M 560 856 L 560 472 M 560 472 A 8 8 0 0 1 568 464 L 608 464" stroke-miterlimit="10"/></g><g transform="translate(-70,-174) scale(1,1)"><path fill="#000000" stroke="none" d="M 597.8373251423759 468.209517756016 L 608 464 L 597.8373251423758 459.790482243984 L 586 464"/></g><g transform="translate(-70,-174) scale(1,1)"><path fill="none" stroke="#000000" d="M 597.8373251423759 468.209517756016 L 608 464 L 597.8373251423758 459.790482243984 L 586 464 L 597.8373251423759 468.209517756016" stroke-miterlimit="10"/></g><g transform="translate(-70,-174) scale(1,1)"><g><path fill="none" stroke="none"/><text fill="#000000" stroke="none" font-family="Arial" font-size="13px" font-style="normal" font-weight="normal" text-decoration="none" x="568.5" y="840.5">1</text></g></g><g transform="translate(-70,-174) scale(1,1)"><g><path fill="none" stroke="none"/><text fill="#000000" stroke="none" font-family="Arial" font-size="13px" font-style="normal" font-weight="normal" text-decoration="none" x="582.5" y="482.5">1</text></g></g><g transform="translate(-70,-174) scale(1,1)"><path fill="none" stroke="#000000" d="M 1144 856 L 1144 464 M 1144 464 A 8 8 0 0 0 1136 456 L 1081 456" stroke-miterlimit="10"/></g><g transform="translate(-70,-174) scale(1,1)"><path fill="#000000" stroke="none" d="M 1091.162674857624 451.790482243984 L 1081 456 L 1091.162674857624 460.209517756016 L 1103 456"/></g><g transform="translate(-70,-174) scale(1,1)"><path fill="none" stroke="#000000" d="M 1091.162674857624 451.790482243984 L 1081 456 L 1091.162674857624 460.209517756016 L 1103 456 L 1091.162674857624 451.790482243984" stroke-miterlimit="10"/></g><g transform="translate(-70,-174) scale(1,1)"><g><path fill="none" stroke="none"/><text fill="#000000" stroke="none" font-family="Arial" font-size="13px" font-style="normal" font-weight="normal" text-decoration="none" x="1152.5" y="840.5">1</text></g></g><g transform="translate(-70,-174) scale(1,1)"><g><path fill="none" stroke="none"/><text fill="#000000" stroke="none" font-family="Arial" font-size="13px" font-style="normal" font-weight="normal" text-decoration="none" x="1098.5" y="449.5">1</text></g></g><g transform="translate(-70,-174) scale(1,1)"><path fill="none" stroke="#000000" d="M 1588 864 L 1588 392 M 1588 392 A 8 8 0 0 0 1580 384 L 928 384 M 928 384 A 8 8 0 0 0 920 392 L 920 416" stroke-miterlimit="10"/></g><g transform="translate(-70,-174) scale(1,1)"><path fill="#000000" stroke="none" d="M 915.790482243984 405.83732514237585 L 920 416 L 924.209517756016 405.83732514237585 L 920 394"/></g><g transform="translate(-70,-174) scale(1,1)"><path fill="none" stroke="#000000" d="M 915.790482243984 405.83732514237585 L 920 416 L 924.209517756016 405.83732514237585 L 920 394 L 915.790482243984 405.83732514237585" stroke-miterlimit="10"/></g><g transform="translate(-70,-174) scale(1,1)"><g><path fill="none" stroke="none"/><text fill="#000000" stroke="none" font-family="Arial" font-size="13px" font-style="normal" font-weight="normal" text-decoration="none" x="1589.5" y="848.5">0..*</text></g></g><g transform="translate(-70,-174) scale(1,1)"><g><path fill="none" stroke="none"/><text fill="#000000" stroke="none" font-family="Arial" font-size="13px" font-style="normal" font-weight="normal" text-decoration="none" x="903.5" y="400.5">1</text></g></g><g transform="translate(-70,-174) scale(1,1)"><path fill="none" stroke="#000000" d="M 800 416 L 800 203 M 800 203 A 8 8 0 0 0 792 195 L 505.44873046875 195" stroke-miterlimit="10"/></g><g transform="translate(-70,-174) scale(1,1)"><path fill="#C0C0C0" stroke="none" d="M 138.5 898.5 C 138.5 892.1487248 143.6487248 887 150 887 C 156.3512752 887 161.5 892.1487248 161.5 898.5 C 161.5 904.8512752 156.3512752 910 150 910 C 143.6487248 910 138.5 904.8512752 138.5 898.5 Z" opacity="0.2"/></g><g transform="translate(-70,-174) scale(1,1)"><path fill="#ffffff" stroke="none" d="M 131.5 891.5 C 131.5 885.1487248 136.6487248 880 143 880 C 149.3512752 880 154.5 885.1487248 154.5 891.5 C 154.5 897.8512752 149.3512752 903 143 903 C 136.6487248 903 131.5 897.8512752 131.5 891.5 Z"/></g><g transform="translate(-70,-174) scale(1,1)"><path fill="none" stroke="#000000" d="M 131.5 891.5 C 131.5 885.1487248 136.6487248 880 143 880 C 149.3512752 880 154.5 885.1487248 154.5 891.5 C 154.5 897.8512752 149.3512752 903 143 903 C 136.6487248 903 131.5 897.8512752 131.5 891.5 Z" stroke-miterlimit="10"/></g><g transform="translate(-70,-174) scale(1,1)"><path fill="none" stroke="#000000" d="M 80 928 L 206 928" stroke-miterlimit="10"/></g><g transform="translate(-70,-174) scale(1,1)"><g><path fill="none" stroke="none"/><text fill="#000000" stroke="none" font-family="Arial" font-size="13px" font-style="normal" font-weight="bold" text-decoration="none" x="86.5" y="922.5">RMIServerInterface</text></g></g><g transform="translate(-70,-174) scale(1,1)"><g><path fill="none" stroke="none"/><text fill="#000000" stroke="none" font-family="Arial" font-size="13px" font-style="normal" font-weight="normal" text-decoration="none" x="85" y="945.5">+connect()</text></g></g><g transform="translate(-70,-174) scale(1,1)"><g><path fill="none" stroke="none"/><text fill="#000000" stroke="none" font-family="Arial" font-size="13px" font-style="normal" font-weight="normal" text-decoration="none" x="85" y="960.5">+login()</text></g></g><g transform="translate(-70,-174) scale(1,1)"><g><path fill="none" stroke="none"/><text fill="#000000" stroke="none" font-family="Arial" font-size="13px" font-style="normal" font-weight="normal" text-decoration="none" x="85" y="975.5">+register()</text></g></g><g transform="translate(-70,-174) scale(1,1)"><g><path fill="none" stroke="none"/><text fill="#000000" stroke="none" font-family="Arial" font-size="13px" font-style="normal" font-weight="normal" text-decoration="none" x="85" y="990.5">+performAction()</text></g></g><g transform="translate(-70,-174) scale(1,1)"><path fill="none" stroke="#000000" d="M 416 891 L 154.5 891" stroke-miterlimit="10"/></g><g transform="translate(-70,-174) scale(1,1)"><rect fill="#C0C0C0" stroke="none" x="783" y="1055" width="139" height="115" opacity="0.2"/></g><g transform="translate(-70,-174) scale(1,1)"><rect fill="#ffffff" stroke="none" x="776" y="1048" width="139" height="115"/></g><g transform="translate(-70,-174) scale(1,1)"><path fill="none" stroke="#000000" d="M 776 1048 L 915 1048 L 915 1163 L 776 1163 L 776 1048 Z Z" stroke-miterlimit="10"/></g><g transform="translate(-70,-174) scale(1,1)"><path fill="none" stroke="#000000" d="M 776 1073 L 915 1073" stroke-miterlimit="10"/></g><g transform="translate(-70,-174) scale(1,1)"><path fill="none" stroke="#000000" d="M 776 1096 L 915 1096" stroke-miterlimit="10"/></g><g transform="translate(-70,-174) scale(1,1)"><g><path fill="none" stroke="none"/><text fill="#000000" stroke="none" font-family="Arial" font-size="13px" font-style="italic" font-weight="bold" text-decoration="none" x="807" y="1067.5">ClientHandler</text></g></g><g transform="translate(-70,-174) scale(1,1)"><g><path fill="none" stroke="none"/><text fill="#000000" stroke="none" font-family="Arial" font-size="13px" font-style="normal" font-weight="normal" text-decoration="none" x="781" y="1090.5">-username</text></g></g><g transform="translate(-70,-174) scale(1,1)"><g><path fill="none" stroke="none"/><text fill="#000000" stroke="none" font-family="Arial" font-size="13px" font-style="normal" font-weight="normal" text-decoration="none" x="781" y="1113.5">+sendObject()</text></g></g><g transform="translate(-70,-174) scale(1,1)"><g><path fill="none" stroke="none"/><text fill="#000000" stroke="none" font-family="Arial" font-size="13px" font-style="normal" font-weight="normal" text-decoration="none" x="781" y="1128.5">+notifyConnection()</text></g></g><g transform="translate(-70,-174) scale(1,1)"><g><path fill="none" stroke="none"/><text fill="#000000" stroke="none" font-family="Arial" font-size="13px" font-style="normal" font-weight="normal" text-decoration="none" x="781" y="1143.5">+notifyDisconnection()</text></g></g><g transform="translate(-70,-174) scale(1,1)"><g><path fill="none" stroke="none"/><text fill="#000000" stroke="none" font-family="Arial" font-size="13px" font-style="normal" font-weight="normal" text-decoration="none" x="781" y="1158.5">+notifyNewMessage()</text></g></g><g transform="translate(-70,-174) scale(1,1)"><path fill="none" stroke="#000000" d="M 660 1381 L 808 1381 M 808 1381 A 8 8 0 0 0 816 1373 L 816 1163" stroke-miterlimit="10"/></g><g transform="translate(-70,-174) scale(1,1)"><path fill="#FFFFFF" stroke="none" d="M 824.419035512032 1183.3253497152482 L 816 1163 L 807.580964487968 1183.3253497152482"/></g><g transform="translate(-70,-174) scale(1,1)"><path fill="none" stroke="#000000" d="M 824.419035512032 1183.3253497152482 L 816 1163 L 807.580964487968 1183.3253497152482 L 824.419035512032 1183.3253497152482" stroke-miterlimit="10"/></g><g transform="translate(-70,-174) scale(1,1)"><path fill="none" stroke="#000000" d="M 1080 1375 L 888 1375 M 888 1375 A 8 8 0 0 1 880 1367 L 880 1163" stroke-miterlimit="10"/></g><g transform="translate(-70,-174) scale(1,1)"><path fill="#FFFFFF" stroke="none" d="M 888.419035512032 1183.3253497152482 L 880 1163 L 871.580964487968 1183.3253497152482"/></g><g transform="translate(-70,-174) scale(1,1)"><path fill="none" stroke="#000000" d="M 888.419035512032 1183.3253497152482 L 880 1163 L 871.580964487968 1183.3253497152482 L 888.419035512032 1183.3253497152482" stroke-miterlimit="10"/></g><g transform="translate(-70,-174) scale(1,1)"><path fill="none" stroke="#000000" d="M 846 1047 L 849 810" stroke-miterlimit="10"/></g><g transform="translate(-70,-174) scale(1,1)"><path fill="#000000" stroke="none" d="M 853.0805494005072 820.2151415354864 L 849 810 L 844.6621883015425 820.1085800025882 L 848.7215412952693 831.9982376737265"/></g><g transform="translate(-70,-174) scale(1,1)"><path fill="none" stroke="#000000" d="M 853.0805494005072 820.2151415354864 L 849 810 L 844.6621883015425 820.1085800025882 L 848.7215412952693 831.9982376737265 L 853.0805494005072 820.2151415354864" stroke-miterlimit="10"/></g><g transform="translate(-70,-174) scale(1,1)"><path fill="#C0C0C0" stroke="none" d="M 249 698 C 249 687.5065888 257.5065888 679 268 679 C 278.4934112 679 287 687.5065888 287 698 C 287 708.4934112 278.4934112 717 268 717 C 257.5065888 717 249 708.4934112 249 698 Z" opacity="0.2"/></g><g transform="translate(-70,-174) scale(1,1)"><path fill="#ffffff" stroke="none" d="M 242 691 C 242 680.5065888 250.5065888 672 261 672 C 271.4934112 672 280 680.5065888 280 691 C 280 701.4934112 271.4934112 710 261 710 C 250.5065888 710 242 701.4934112 242 691 Z"/></g><g transform="translate(-70,-174) scale(1,1)"><path fill="none" stroke="#000000" d="M 242 691 C 242 680.5065888 250.5065888 672 261 672 C 271.4934112 672 280 680.5065888 280 691 C 280 701.4934112 271.4934112 710 261 710 C 250.5065888 710 242 701.4934112 242 691 Z" stroke-miterlimit="10"/></g><g transform="translate(-70,-174) scale(1,1)"><path fill="none" stroke="#000000" d="M 144 735 L 378 735" stroke-miterlimit="10"/></g><g transform="translate(-70,-174) scale(1,1)"><path fill="none" stroke="#000000" d="M 144 758 L 378 758" stroke-miterlimit="10"/></g><g transform="translate(-70,-174) scale(1,1)"><g><path fill="none" stroke="none"/><text fill="#000000" stroke="none" font-family="Arial" font-size="13px" font-style="normal" font-weight="bold" text-decoration="none" x="228" y="729.5">Observable</text></g></g><g transform="translate(-70,-174) scale(1,1)"><g><path fill="none" stroke="none"/><text fill="#000000" stroke="none" font-family="Arial" font-size="13px" font-style="normal" font-weight="normal" text-decoration="none" x="149" y="752.5">+observers: T</text></g></g><g transform="translate(-70,-174) scale(1,1)"><g><path fill="none" stroke="none"/><text fill="#000000" stroke="none" font-family="Arial" font-size="13px" font-style="normal" font-weight="normal" text-decoration="none" x="149" y="775.5">+addObserver(o: ServerObserver)</text></g></g><g transform="translate(-70,-174) scale(1,1)"><g><path fill="none" stroke="none"/><text fill="#000000" stroke="none" font-family="Arial" font-size="13px" font-style="normal" font-weight="normal" text-decoration="none" x="149" y="790.5">+removeObservers(o: ServerObserver)</text></g></g><g transform="translate(-70,-174) scale(1,1)"><path fill="none" stroke="#000000" d="M 704 691 L 280 691" stroke-miterlimit="10"/></g><g transform="translate(-70,-174) scale(1,1)"><path fill="#C0C0C0" stroke="none" d="M 430 1226.5 C 430 1220.1487248 435.1487248 1215 441.5 1215 C 447.8512752 1215 453 1220.1487248 453 1226.5 C 453 1232.8512752 447.8512752 1238 441.5 1238 C 435.1487248 1238 430 1232.8512752 430 1226.5 Z" opacity="0.2"/></g><g transform="translate(-70,-174) scale(1,1)"><path fill="#ffffff" stroke="none" d="M 423 1219.5 C 423 1213.1487248 428.1487248 1208 434.5 1208 C 440.8512752 1208 446 1213.1487248 446 1219.5 C 446 1225.8512752 440.8512752 1231 434.5 1231 C 428.1487248 1231 423 1225.8512752 423 1219.5 Z"/></g><g transform="translate(-70,-174) scale(1,1)"><path fill="none" stroke="#000000" d="M 423 1219.5 C 423 1213.1487248 428.1487248 1208 434.5 1208 C 440.8512752 1208 446 1213.1487248 446 1219.5 C 446 1225.8512752 440.8512752 1231 434.5 1231 C 428.1487248 1231 423 1225.8512752 423 1219.5 Z" stroke-miterlimit="10"/></g><g transform="translate(-70,-174) scale(1,1)"><g><path fill="none" stroke="none"/><text fill="#000000" stroke="none" font-family="Arial" font-size="13px" font-style="normal" font-weight="bold" text-decoration="none" x="407.5" y="1250.5">Runnable</text></g></g><g transform="translate(-70,-174) scale(1,1)"><path fill="#C0C0C0" stroke="none" d="M 1262 698.5 C 1262 692.1487248 1267.1487248 687 1273.5 687 C 1279.8512752 687 1285 692.1487248 1285 698.5 C 1285 704.8512752 1279.8512752 710 1273.5 710 C 1267.1487248 710 1262 704.8512752 1262 698.5 Z" opacity="0.2"/></g><g transform="translate(-70,-174) scale(1,1)"><path fill="#ffffff" stroke="none" d="M 1255 691.5 C 1255 685.1487248 1260.1487248 680 1266.5 680 C 1272.8512752 680 1278 685.1487248 1278 691.5 C 1278 697.8512752 1272.8512752 703 1266.5 703 C 1260.1487248 703 1255 697.8512752 1255 691.5 Z"/></g><g transform="translate(-70,-174) scale(1,1)"><path fill="none" stroke="#000000" d="M 1255 691.5 C 1255 685.1487248 1260.1487248 680 1266.5 680 C 1272.8512752 680 1278 685.1487248 1278 691.5 C 1278 697.8512752 1272.8512752 703 1266.5 703 C 1260.1487248 703 1255 697.8512752 1255 691.5 Z" stroke-miterlimit="10"/></g><g transform="translate(-70,-174) scale(1,1)"><g><path fill="none" stroke="none"/><text fill="#000000" stroke="none" font-family="Arial" font-size="13px" font-style="normal" font-weight="bold" text-decoration="none" x="1239.5" y="722.5">Runnable</text></g></g><g transform="translate(-70,-174) scale(1,1)"><path fill="none" stroke="#000000" d="M 776 1096 L 672 1096 M 672 1096 A 8 8 0 0 0 664 1104 L 664 1211 M 664 1211 A 8 8 0 0 1 656 1219 L 446 1219" stroke-miterlimit="10"/></g><g transform="translate(-70,-174) scale(1,1)"><path fill="#C0C0C0" stroke="none" d="M 247.5 578.5 C 247.5 572.1487248 252.6487248 567 259 567 C 265.3512752 567 270.5 572.1487248 270.5 578.5 C 270.5 584.8512752 265.3512752 590 259 590 C 252.6487248 590 247.5 584.8512752 247.5 578.5 Z" opacity="0.2"/></g><g transform="translate(-70,-174) scale(1,1)"><path fill="#ffffff" stroke="none" d="M 240.5 571.5 C 240.5 565.1487248 245.6487248 560 252 560 C 258.3512752 560 263.5 565.1487248 263.5 571.5 C 263.5 577.8512752 258.3512752 583 252 583 C 245.6487248 583 240.5 577.8512752 240.5 571.5 Z"/></g><g transform="translate(-70,-174) scale(1,1)"><path fill="none" stroke="#000000" d="M 240.5 571.5 C 240.5 565.1487248 245.6487248 560 252 560 C 258.3512752 560 263.5 565.1487248 263.5 571.5 C 263.5 577.8512752 258.3512752 583 252 583 C 245.6487248 583 240.5 577.8512752 240.5 571.5 Z" stroke-miterlimit="10"/></g><g transform="translate(-70,-174) scale(1,1)"><path fill="none" stroke="#000000" d="M 128 608 L 376 608" stroke-miterlimit="10"/></g><g transform="translate(-70,-174) scale(1,1)"><g><path fill="none" stroke="none"/><text fill="#000000" stroke="none" font-family="Arial" font-size="13px" font-style="normal" font-weight="bold" text-decoration="none" x="187" y="602.5">ClientHandlerObserver</text></g></g><g transform="translate(-70,-174) scale(1,1)"><g><path fill="none" stroke="none"/><text fill="#000000" stroke="none" font-family="Arial" font-size="13px" font-style="normal" font-weight="normal" text-decoration="none" x="133" y="625.5">+onDisconnection(handler: ClientHandler)</text></g></g><g transform="translate(-70,-174) scale(1,1)"><g><path fill="none" stroke="none"/><text fill="#000000" stroke="none" font-family="Arial" font-size="13px" font-style="normal" font-weight="normal" text-decoration="none" x="133" y="640.5">+onMessage(handler: ClientHandler)</text></g></g><g transform="translate(-70,-174) scale(1,1)"><path fill="none" stroke="#000000" d="M 744 664 L 744 579 M 744 579 A 8 8 0 0 0 736 571 L 263.5 571" stroke-miterlimit="10"/></g><g transform="translate(-70,-174) scale(1,1)"><path fill="#C0C0C0" stroke="none" d="M 248 370.5 C 248 364.1487248 253.1487248 359 259.5 359 C 265.8512752 359 271 364.1487248 271 370.5 C 271 376.8512752 265.8512752 382 259.5 382 C 253.1487248 382 248 376.8512752 248 370.5 Z" opacity="0.2"/></g><g transform="translate(-70,-174) scale(1,1)"><path fill="#ffffff" stroke="none" d="M 241 363.5 C 241 357.1487248 246.1487248 352 252.5 352 C 258.8512752 352 264 357.1487248 264 363.5 C 264 369.8512752 258.8512752 375 252.5 375 C 246.1487248 375 241 369.8512752 241 363.5 Z"/></g><g transform="translate(-70,-174) scale(1,1)"><path fill="none" stroke="#000000" d="M 241 363.5 C 241 357.1487248 246.1487248 352 252.5 352 C 258.8512752 352 264 357.1487248 264 363.5 C 264 369.8512752 258.8512752 375 252.5 375 C 246.1487248 375 241 369.8512752 241 363.5 Z" stroke-miterlimit="10"/></g><g transform="translate(-70,-174) scale(1,1)"><path fill="none" stroke="#000000" d="M 128 400 L 377 400" stroke-miterlimit="10"/></g><g transform="translate(-70,-174) scale(1,1)"><g><path fill="none" stroke="none"/><text fill="#000000" stroke="none" font-family="Arial" font-size="13px" font-style="normal" font-weight="bold" text-decoration="none" x="207" y="394.5">ServerObserver</text></g></g><g transform="translate(-70,-174) scale(1,1)"><g><path fill="none" stroke="none"/><text fill="#000000" stroke="none" font-family="Arial" font-size="13px" font-style="normal" font-weight="normal" text-decoration="none" x="133" y="417.5">+onAuthentication(handler: ClientHandler)</text></g></g><g transform="translate(-70,-174) scale(1,1)"><g><path fill="none" stroke="none"/><text fill="#000000" stroke="none" font-family="Arial" font-size="13px" font-style="normal" font-weight="normal" text-decoration="none" x="133" y="432.5">+onDisconnection(handler: ClientHandler)</text></g></g><g transform="translate(-70,-174) scale(1,1)"><g><path fill="none" stroke="none"/><text fill="#000000" stroke="none" font-family="Arial" font-size="13px" font-style="normal" font-weight="normal" text-decoration="none" x="133" y="447.5">+onError(server: Server)</text></g></g><g transform="translate(-70,-174) scale(1,1)"><path fill="none" stroke="#000000" d="M 664 416 L 664 371 M 664 371 A 8 8 0 0 0 656 363 L 264 363" stroke-miterlimit="10"/></g><g transform="translate(-70,-174) scale(1,1)"><path fill="#C0C0C0" stroke="none" d="M 424.5 1090.5 C 424.5 1084.1487248 429.6487248 1079 436 1079 C 442.3512752 1079 447.5 1084.1487248 447.5 1090.5 C 447.5 1096.8512752 442.3512752 1102 436 1102 C 429.6487248 1102 424.5 1096.8512752 424.5 1090.5 Z" opacity="0.2"/></g><g transform="translate(-70,-174) scale(1,1)"><path fill="#ffffff" stroke="none" d="M 417.5 1083.5 C 417.5 1077.1487248 422.6487248 1072 429 1072 C 435.3512752 1072 440.5 1077.1487248 440.5 1083.5 C 440.5 1089.8512752 435.3512752 1095 429 1095 C 422.6487248 1095 417.5 1089.8512752 417.5 1083.5 Z"/></g><g transform="translate(-70,-174) scale(1,1)"><path fill="none" stroke="#000000" d="M 417.5 1083.5 C 417.5 1077.1487248 422.6487248 1072 429 1072 C 435.3512752 1072 440.5 1077.1487248 440.5 1083.5 C 440.5 1089.8512752 435.3512752 1095 429 1095 C 422.6487248 1095 417.5 1089.8512752 417.5 1083.5 Z" stroke-miterlimit="10"/></g><g transform="translate(-70,-174) scale(1,1)"><path fill="none" stroke="#000000" d="M 296 1120 L 562 1120" stroke-miterlimit="10"/></g><g transform="translate(-70,-174) scale(1,1)"><g><path fill="none" stroke="none"/><text fill="#000000" stroke="none" font-family="Arial" font-size="13px" font-style="normal" font-weight="bold" text-decoration="none" x="396" y="1114.5">Observable</text></g></g><g transform="translate(-70,-174) scale(1,1)"><g><path fill="none" stroke="none"/><text fill="#000000" stroke="none" font-family="Arial" font-size="13px" font-style="normal" font-weight="normal" text-decoration="none" x="301" y="1137.5">+addObserver(o: ClientHandlerObserver)</text></g></g><g transform="translate(-70,-174) scale(1,1)"><g><path fill="none" stroke="none"/><text fill="#000000" stroke="none" font-family="Arial" font-size="13px" font-style="normal" font-weight="normal" text-decoration="none" x="301" y="1152.5">+removeObserver(o: ClientHandlerObserver)</text></g></g><g transform="translate(-70,-174) scale(1,1)"><path fill="none" stroke="#000000" d="M 776 1083 L 440.5 1083" stroke-miterlimit="10"/></g><g transform="translate(-70,-174) scale(1,1)"><path fill="none" stroke="#000000" d="M 1266 856 L 1266 703" stroke-miterlimit="10"/></g><g transform="translate(-70,-174) scale(1,1)"><rect fill="#C0C0C0" stroke="none" x="2079" y="1127" width="448" height="115" opacity="0.2"/></g><g transform="translate(-70,-174) scale(1,1)"><rect fill="#ffffff" stroke="none" x="2072" y="1120" width="448" height="115"/></g><g transform="translate(-70,-174) scale(1,1)"><path fill="none" stroke="#000000" d="M 2072 1120 L 2520 1120 L 2520 1235 L 2072 1235 L 2072 1120 Z Z" stroke-miterlimit="10"/></g><g transform="translate(-70,-174) scale(1,1)"><path fill="none" stroke="#000000" d="M 2072 1145 L 2520 1145" stroke-miterlimit="10"/></g><g transform="translate(-70,-174) scale(1,1)"><path fill="none" stroke="#000000" d="M 2072 1168 L 2520 1168" stroke-miterlimit="10"/></g><g transform="translate(-70,-174) scale(1,1)"><g><path fill="none" stroke="none"/><text fill="#000000" stroke="none" font-family="Arial" font-size="13px" font-style="normal" font-weight="bold" text-decoration="none" x="2251.5" y="1139.5">BoardController</text></g></g><g transform="translate(-70,-174) scale(1,1)"><g><path fill="none" stroke="none"/><text fill="#000000" stroke="none" font-family="Arial" font-size="13px" font-style="normal" font-weight="normal" text-decoration="none" x="2077" y="1162.5">-board: Board</text></g></g><g transform="translate(-70,-174) scale(1,1)"><g><path fill="none" stroke="none"/><text fill="#000000" stroke="none" font-family="Arial" font-size="13px" font-style="normal" font-weight="normal" text-decoration="none" x="2077" y="1185.5">+createBanCards(): ArrayList&lt;Deck&lt;BanCard&gt;&gt;</text></g></g><g transform="translate(-70,-174) scale(1,1)"><g><path fill="none" stroke="none"/><text fill="#000000" stroke="none" font-family="Arial" font-size="13px" font-style="normal" font-weight="normal" text-decoration="none" x="2077" y="1200.5">+createDvptCards(): ArrayList&lt;Deck&lt;DvptCard&gt;&gt;</text></g></g><g transform="translate(-70,-174) scale(1,1)"><g><path fill="none" stroke="none"/><text fill="#000000" stroke="none" font-family="Arial" font-size="13px" font-style="normal" font-weight="normal" text-decoration="none" x="2077" y="1215.5">+prepareTowers(decks: ArrayList&lt;Deck&lt;DvptCard&gt;&gt;, period: Period)</text></g></g><g transform="translate(-70,-174) scale(1,1)"><g><path fill="none" stroke="none"/><text fill="#000000" stroke="none" font-family="Arial" font-size="13px" font-style="normal" font-weight="normal" text-decoration="none" x="2077" y="1230.5">+prepareCathedrals(banDecks: ArrayList&lt;Deck&lt;BanCard&gt;&gt;, period: Period)</text></g></g><g transform="translate(-70,-174) scale(1,1)"><rect fill="#C0C0C0" stroke="none" x="2167" y="903" width="271" height="190" opacity="0.2"/></g><g transform="translate(-70,-174) scale(1,1)"><rect fill="#ffffff" stroke="none" x="2160" y="896" width="271" height="190"/></g><g transform="translate(-70,-174) scale(1,1)"><path fill="none" stroke="#000000" d="M 2160 896 L 2431 896 L 2431 1086 L 2160 1086 L 2160 896 Z Z" stroke-miterlimit="10"/></g><g transform="translate(-70,-174) scale(1,1)"><path fill="none" stroke="#000000" d="M 2160 921 L 2431 921" stroke-miterlimit="10"/></g><g transform="translate(-70,-174) scale(1,1)"><path fill="none" stroke="#000000" d="M 2160 959 L 2431 959" stroke-miterlimit="10"/></g><g transform="translate(-70,-174) scale(1,1)"><g><path fill="none" stroke="none"/><text fill="#000000" stroke="none" font-family="Arial" font-size="13px" font-style="normal" font-weight="bold" text-decoration="none" x="2250" y="915.5">MatchController</text></g></g><g transform="translate(-70,-174) scale(1,1)"><g><path fill="none" stroke="none"/><text fill="#000000" stroke="none" font-family="Arial" font-size="13px" font-style="normal" font-weight="normal" text-decoration="none" x="2165" y="938.5">-match: MatchController</text></g></g><g transform="translate(-70,-174) scale(1,1)"><g><path fill="none" stroke="none"/><text fill="#000000" stroke="none" font-family="Arial" font-size="13px" font-style="normal" font-weight="normal" text-decoration="none" x="2165" y="953.5">-boardController</text></g></g><g transform="translate(-70,-174) scale(1,1)"><g><path fill="none" stroke="none"/><text fill="#000000" stroke="none" font-family="Arial" font-size="13px" font-style="normal" font-weight="normal" text-decoration="none" x="2165" y="976.5">+onPlyaerAction()</text></g></g><g transform="translate(-70,-174) scale(1,1)"><g><path fill="none" stroke="none"/><text fill="#000000" stroke="none" font-family="Arial" font-size="13px" font-style="normal" font-weight="normal" text-decoration="none" x="2165" y="991.5">+start()</text></g></g><g transform="translate(-70,-174) scale(1,1)"><g><path fill="none" stroke="none"/><text fill="#000000" stroke="none" font-family="Arial" font-size="13px" font-style="normal" font-weight="normal" text-decoration="none" x="2165" y="1006.5">+MatchController(players: ArrayList&lt;Player&gt;)</text></g></g><g transform="translate(-70,-174) scale(1,1)"><g><path fill="none" stroke="none"/><text fill="#000000" stroke="none" font-family="Arial" font-size="13px" font-style="normal" font-weight="normal" text-decoration="none" x="2165" y="1021.5">+checkActionPossible()</text></g></g><g transform="translate(-70,-174) scale(1,1)"><g><path fill="none" stroke="none"/><text fill="#000000" stroke="none" font-family="Arial" font-size="13px" font-style="normal" font-weight="normal" text-decoration="none" x="2165" y="1036.5">+applyEffect()</text></g></g><g transform="translate(-70,-174) scale(1,1)"><g><path fill="none" stroke="none"/><text fill="#000000" stroke="none" font-family="Arial" font-size="13px" font-style="normal" font-weight="normal" text-decoration="none" x="2165" y="1051.5">+updateTurn()</text></g></g><g transform="translate(-70,-174) scale(1,1)"><g><path fill="none" stroke="none"/><text fill="#000000" stroke="none" font-family="Arial" font-size="13px" font-style="normal" font-weight="normal" text-decoration="none" x="2165" y="1066.5">+getModel()</text></g></g><g transform="translate(-70,-174) scale(1,1)"><path fill="none" stroke="#000000" d="M 2290 1120 L 2290 1086" stroke-miterlimit="10"/></g><g transform="translate(-70,-174) scale(1,1)"><path fill="#000000" stroke="none" d="M 2294.209517756016 1096.162674857624 L 2290 1086 L 2285.790482243984 1096.162674857624 L 2290 1108"/></g><g transform="translate(-70,-174) scale(1,1)"><path fill="none" stroke="#000000" d="M 2294.209517756016 1096.162674857624 L 2290 1086 L 2285.790482243984 1096.162674857624 L 2290 1108 L 2294.209517756016 1096.162674857624" stroke-miterlimit="10"/></g><g transform="translate(-70,-174) scale(1,1)"><path fill="none" stroke="#000000" d="M 2160 967 L 1853 967" stroke-miterlimit="10"/></g><g transform="translate(-70,-174) scale(1,1)"><path fill="#000000" stroke="none" d="M 1863.162674857624 962.790482243984 L 1853 967 L 1863.162674857624 971.209517756016 L 1875 967"/></g><g transform="translate(-70,-174) scale(1,1)"><path fill="none" stroke="#000000" d="M 1863.162674857624 962.790482243984 L 1853 967 L 1863.162674857624 971.209517756016 L 1875 967 L 1863.162674857624 962.790482243984" stroke-miterlimit="10"/></g><g transform="translate(-70,-174) scale(1,1)"><path fill="none" stroke="#000000" d="M 1630 1084 L 1630 1112 M 1630 1112 A 8 8 0 0 1 1622 1120 L 915 1120" stroke-miterlimit="10"/></g></g></svg>